HIERARCHY
ROOT Hips
{
	OFFSET	0.00	0.00	0.00
	CHANNELS 6 Xposition Yposition Zposition Zrotation Xrotation Yrotation
	JOINT LeftUpLeg
	{
		OFFSET	 0.126116	-0.065224	 0.014019
		CHANNELS 3 Zrotation Xrotation Yrotation
		JOINT LeftLeg
		{
			OFFSET	 0.000000	 0.569914	 0.000000
			CHANNELS 3 Zrotation Xrotation Yrotation
			JOINT LeftFoot
			{
				OFFSET	 0.000000	 0.544423	 0.000000
				CHANNELS 3 Zrotation Xrotation Yrotation
				JOINT LeftToeBase
				{
					OFFSET	 0.000000	 0.207117	 0.000000
					CHANNELS 3 Zrotation Xrotation Yrotation
					End Site
					{
						OFFSET	 0.000000	 0.207117	 0.000000
					}
				}
			}
		}
	}
	JOINT RightUpLeg
	{
		OFFSET	-0.124023	-0.065224	 0.008373
		CHANNELS 3 Zrotation Xrotation Yrotation
		JOINT RightLeg
		{
			OFFSET	 0.000000	 0.570047	 0.000000
			CHANNELS 3 Zrotation Xrotation Yrotation
			JOINT RightFoot
			{
				OFFSET	 0.000000	 0.544354	 0.000000
				CHANNELS 3 Zrotation Xrotation Yrotation
				JOINT RightToeBase
				{
					OFFSET	 0.000000	 0.207540	 0.000000
					CHANNELS 3 Zrotation Xrotation Yrotation
					End Site
					{
						OFFSET	 0.000000	 0.207540	 0.000000
					}
				}
			}
		}
	}
	JOINT Spine
	{
		OFFSET	 0.000184	 0.117403	 0.007763
		CHANNELS 3 Zrotation Xrotation Yrotation
		JOINT Spine1
		{
			OFFSET	 0.000000	 0.137269	 0.000000
			CHANNELS 3 Zrotation Xrotation Yrotation
			JOINT Spine2
			{
				OFFSET	 0.000000	 0.156879	 0.000000
				CHANNELS 3 Zrotation Xrotation Yrotation
				JOINT LeftShoulder
				{
					OFFSET	 0.080501	 0.160143	 0.002496
					CHANNELS 3 Zrotation Xrotation Yrotation
					JOINT LeftArm
					{
						OFFSET	 0.000000	 0.164363	 0.000000
						CHANNELS 3 Zrotation Xrotation Yrotation
						JOINT LeftForeArm
						{
							OFFSET	 0.000000	 0.364576	 0.000000
							CHANNELS 3 Zrotation Xrotation Yrotation
							JOINT LeftHand
							{
								OFFSET	 0.000000	 0.360812	 0.000000
								CHANNELS 3 Zrotation Xrotation Yrotation
								JOINT LeftHandIndex1
								{
									OFFSET	 0.000000	 0.086006	 0.000000
									CHANNELS 3 Zrotation Xrotation Yrotation
									JOINT LeftHandIndex2
									{
										OFFSET	 0.000000	 0.047237	 0.000000
										CHANNELS 3 Zrotation Xrotation Yrotation
										JOINT LeftHandIndex3
										{
											OFFSET	-0.004284	 0.038165	 0.000551
											CHANNELS 3 Zrotation Xrotation Yrotation
											End Site
											{
												OFFSET	-0.004284	 0.038165	 0.000551
											}
										}
									}
								}
							}
						}
					}
				}
				JOINT Neck
				{
					OFFSET	 0.000000	 0.176489	 0.000000
					CHANNELS 3 Zrotation Xrotation Yrotation
					JOINT Head
					{
						OFFSET	 0.000000	 0.077941	 0.001747
						CHANNELS 3 Zrotation Xrotation Yrotation
						End Site
						{
							OFFSET	 0.000000	 0.077941	 0.001747
						}
					}
				}
				JOINT RightShoulder
				{
					OFFSET	-0.080363	 0.159706	-0.000306
					CHANNELS 3 Zrotation Xrotation Yrotation
					JOINT RightArm
					{
						OFFSET	 0.000000	 0.164196	 0.000000
						CHANNELS 3 Zrotation Xrotation Yrotation
						JOINT RightForeArm
						{
							OFFSET	 0.000000	 0.365611	 0.000000
							CHANNELS 3 Zrotation Xrotation Yrotation
							JOINT RightHand
							{
								OFFSET	 0.000000	 0.360648	 0.000000
								CHANNELS 3 Zrotation Xrotation Yrotation
								JOINT RightHandIndex1
								{
									OFFSET	 0.000000	 0.069977	 0.000000
									CHANNELS 3 Zrotation Xrotation Yrotation
									JOINT RightHandIndex2
									{
										OFFSET	 0.000000	 0.052305	 0.000000
										CHANNELS 3 Zrotation Xrotation Yrotation
										JOINT RightHandIndex3
										{
											OFFSET	 0.009002	 0.042196	 0.000782
											CHANNELS 3 Zrotation Xrotation Yrotation
											End Site
											{
												OFFSET	 0.009002	 0.042196	 0.000782
											}
										}
									}
								}
							}
						}
					}
				}
			}
		}
	}
}
MOTION
Frames:    9
Frame Time: 0.03333334
 0.020300	 1.269600	 0.068389	-0.345322	 2.588259	-179.087000	-175.862400	 5.715811	-26.920420	 3.233634	-15.945610	 5.265634	 1.003193	 67.967030	 0.155527	 1.331492	 28.938720	-2.729976	 176.366600	 7.974922	 34.959100	-4.804722	-15.447090	-6.852972	-2.859939	 67.192340	 0.612265	-1.291328	 28.406950	 2.882221	-2.091149	 4.656765	 23.307940	-0.688882	 0.432029	 4.912934	-1.018380	 3.990168	-15.120740	-113.441900	 5.164055	 92.941160	 16.549020	 50.186990	 26.487410	 14.698820	-0.600578	-6.098005	 6.465828	 2.509547	 66.476780	-6.580301	 5.266122	 0.000000	 0.000000	 0.000000	 0.000000	 0.000000	 0.000000	 0.000000	 4.674347	-0.202056	-0.637109	 5.027000	 0.365843	-2.972667	 114.230200	-4.486620	-88.291950	-27.654530	 36.311900	-31.312530	-85.356480	-2.130149	 4.098058	 7.782721	-21.940890	-50.032790	-0.811984	 22.862130	 0.875425	 12.430740	 21.326500	-4.783757	-8.461127	 9.446286	-0.295064
 0.021237	 1.268476	 0.072638	-0.359342	 2.958318	 179.971400	-175.619700	 5.566887	-27.836850	 3.292903	-16.222340	 4.917844	-0.063937	 67.930790	 1.177666	 1.331492	 28.938720	-2.729976	 176.419400	 8.364445	 34.000990	-5.041241	-16.166810	-8.136635	-6.088037	 67.370250	 3.913818	-1.292367	 28.422700	 2.927166	-0.728555	 5.136191	 7.533958	-0.656677	 0.926086	 4.729893	-1.115559	 3.771888	-15.093810	-113.444600	 5.067725	 92.939800	 19.069280	 50.346290	 25.899100	 10.642100	-0.444864	 4.095587	 8.102963	 2.240806	 70.963600	-6.580301	 5.266122	 0.000000	 0.000000	 0.000000	 0.000000	 0.000000	 0.000000	 0.000000	 4.175160	-0.142236	-0.752899	 4.771666	 0.403816	-3.151140	 114.212100	-4.361944	-88.373350	-21.501930	 38.918270	-35.120450	-61.211940	-1.896694	-5.238597	 7.818519	-15.269970	-28.261790	-0.768331	 21.750570	 0.858855	 12.363690	 20.240390	-4.528392	-8.454443	 8.934854	-0.262830
 0.019929	 1.267604	 0.076171	-0.205342	 3.402740	 178.290100	-175.189000	 5.060619	-29.514440	 3.364806	-16.556990	 4.024256	-2.564538	 67.982060	 3.684906	 1.331492	 28.938720	-2.729976	 176.673000	 8.577347	 32.167940	-5.193260	-16.626540	-9.847548	-10.213570	 67.250520	 8.291739	-1.294965	 28.457140	 2.946537	 0.778849	 5.206599	-8.663961	-0.464108	 1.099952	 4.357198	-1.168212	 3.685910	-14.820150	-113.447700	 5.031130	 92.968460	 19.800540	 50.551510	 27.021210	 12.294740	-0.270749	 14.507000	 9.400640	 1.326266	 70.629860	-6.580301	 5.266122	 0.000000	 0.000000	 0.000000	 0.000000	 0.000000	 0.000000	 0.000000	 3.688145	-0.100088	-0.828536	 4.439377	 0.618678	-3.131722	 114.197000	-4.257681	-88.443340	-16.405510	 37.118150	-40.770390	-54.098640	-1.550776	-15.401870	 16.290650	-5.841628	-12.664480	-0.644482	 18.503430	 0.816225	 12.199230	 17.066210	-3.799171	-8.432441	 7.383761	-0.164929
 0.020050	 1.267793	 0.076801	-0.247084	 3.462182	 178.247100	-175.270900	 4.948694	-29.461220	 3.328810	-16.389560	 3.861450	-2.919312	 67.865930	 4.078989	 1.331492	 28.938720	-2.729976	 176.642000	 8.491248	 32.122560	-5.170507	-16.557870	-9.227884	-8.743737	 67.171310	 6.666234	-1.299535	 28.514550	 2.903049	 1.813398	 4.815536	-22.044980	-0.378532	 1.558835	 4.031804	-1.144719	 3.041990	-14.065460	-113.448100	 4.951923	 92.937810	 19.542020	 50.981100	 27.534770	 17.233510	-0.273157	 24.519400	 8.991420	 0.276251	 63.784020	-6.580301	 5.266122	 0.000000	 0.000000	 0.000000	 0.000000	 0.000000	 0.000000	 0.000000	 3.554256	-0.309081	-0.790988	 4.125483	 0.528152	-2.805541	 114.193100	-4.235117	-88.466020	-15.084060	 38.956830	-41.555840	-53.845010	-1.358495	-25.350930	 15.415570	-4.903422	-5.063810	-0.570102	 16.491030	 0.793856	 12.119620	 15.098160	-3.357891	-8.415031	 6.269394	-0.094403
 0.020007	 1.268249	 0.077308	-0.276900	 3.522249	 178.201500	-175.376500	 4.782872	-29.405020	 3.269487	-16.113040	 3.684509	-3.253635	 67.701190	 4.475911	 1.331492	 28.938720	-2.729976	 176.641700	 8.276410	 32.071280	-5.083073	-16.293550	-8.542608	-7.142271	 66.998040	 4.896553	-1.304270	 28.574650	 2.857501	 2.356556	 4.418966	-30.044930	-0.263240	 2.021904	 3.726300	-1.132879	 2.345126	-13.113500	-113.448500	 4.869034	 92.905700	 19.435370	 51.622270	 27.940950	 21.785890	-0.273804	 33.741140	 8.361653	-0.917040	 51.590690	-6.580301	 5.266122	 0.000000	 0.000000	 0.000000	 0.000000	 0.000000	 0.000000	 0.000000	 3.414231	-0.527970	-0.752201	 3.795709	 0.438390	-2.423261	 114.189100	-4.211511	-88.489750	-13.584780	 41.854340	-42.855300	-51.485660	-1.133592	-34.433810	 13.741570	-4.751975	 7.323760	-0.493832	 14.383110	 0.773549	 12.053640	 13.036160	-2.902733	-8.395366	 5.102608	-0.020340
 0.019599	 1.268706	 0.077389	-0.308481	 3.584063	 178.154800	-175.502900	 4.585594	-29.386820	 3.218769	-15.821870	 3.543954	-3.586773	 67.557790	 4.877892	 1.331492	 28.938720	-2.729976	 176.626000	 8.037656	 32.018650	-4.996097	-16.029820	-7.824416	-5.467210	 66.821490	 3.063642	-1.309047	 28.635970	 2.811012	 2.267193	 4.294057	-30.438700	-0.204193	 2.536421	 3.418267	-1.094322	 1.581594	-11.960450	-113.449000	 4.784461	 92.872960	 19.267470	 52.255600	 28.407440	 25.533140	-0.272967	 41.331060	 7.635184	-2.188242	 34.865220	-6.580301	 5.266122	 0.000000	 0.000000	 0.000000	 0.000000	 0.000000	 0.000000	 0.000000	 3.271524	-0.751377	-0.713181	 3.457537	 0.350529	-1.987274	 114.185000	-4.187423	-88.513960	-13.207540	 45.266850	-43.174920	-47.168670	-0.887050	-41.831480	 11.995850	-4.267425	 23.388270	-0.417498	 12.232850	 0.755972	 12.004050	 10.932310	-2.444495	-8.373778	 3.912318	 0.055508
 0.017961	 1.269055	 0.076227	-0.330455	 3.540065	 178.444000	-175.675100	 4.520140	-29.058480	 3.161158	-15.639280	 3.423923	-3.558758	 67.536220	 4.951726	 1.331492	 28.938720	-2.729976	 176.523700	 7.841491	 32.307910	-4.937425	-15.851580	-7.014644	-3.340553	 66.722140	 0.948516	-1.311753	 28.671010	 2.770966	 1.579881	 4.363136	-23.594130	-0.239103	 3.001519	 3.024041	-1.015718	 0.749934	-10.601720	-113.449500	 4.671347	 92.825920	 18.600830	 52.724260	 29.164860	 28.087820	-0.271543	 46.512370	 7.175008	-3.544028	 15.708020	-6.580301	 5.266122	 0.000000	 0.000000	 0.000000	 0.000000	 0.000000	 0.000000	 0.000000	 3.178848	-0.993768	-0.645762	 3.171980	 0.318222	-1.570172	 114.184100	-4.187190	-88.523350	-15.130960	 48.904160	-42.300720	-41.091470	-0.624652	-46.798130	 8.597386	-5.184333	 39.143090	-0.368145	 10.823310	 0.746109	 11.980980	 9.553017	-2.146777	-8.359287	 3.157793	 0.103766
 0.013744	 1.269290	 0.072473	-0.325648	 3.320077	 179.284100	-175.944500	 4.624644	-28.468060	 3.155077	-15.592550	 3.595878	-2.910542	 67.741160	 4.470328	 1.331492	 28.938720	-2.729976	 176.281100	 7.648672	 33.153710	-4.905359	-15.753990	-6.086609	-0.480247	 66.732640	-1.584908	-1.310995	 28.661090	 2.742954	 0.540107	 4.290709	-12.593140	-0.398996	 3.341913	 2.607742	-0.896270	-0.155626	-8.997237	-113.450200	 4.514164	 92.756550	 17.143500	 52.891790	 30.364430	 29.400910	-0.270379	 49.187880	 7.251576	-4.963450	-3.120847	-6.580301	 5.266122	 0.000000	 0.000000	 0.000000	 0.000000	 0.000000	 0.000000	 0.000000	 3.172735	-1.260159	-0.532309	 2.984659	 0.378777	-1.211470	 114.188600	-4.226790	-88.507730	-16.643770	 50.882280	-42.761300	-40.637080	-0.564865	-49.435540	 6.436463	-8.408422	 50.943120	-0.363574	 10.691880	 0.745262	 11.979200	 9.424416	-2.119101	-8.359204	 3.153715	 0.104016
 0.011364	 1.269398	 0.070127	-0.318102	 3.141147	 179.965100	-176.104600	 4.767093	-27.988870	 3.157923	-15.591380	 3.737418	-2.418051	 67.865360	 4.082791	 1.331492	 28.938720	-2.729976	 176.128100	 7.556470	 33.830040	-4.887208	-15.707090	-5.314070	 1.783986	 66.691540	-3.645236	-1.310385	 28.653040	 2.720242	-0.404903	 4.016571	-1.603264	-0.601304	 3.798880	 1.999129	-0.774296	-1.061745	-7.165568	-113.450900	 4.386739	 92.700320	 15.968940	 52.963050	 31.330040	 29.742680	-0.269854	 49.891790	 6.851379	-6.375431	-19.615620	-6.580301	 5.266122	 0.000000	 0.000000	 0.000000	 0.000000	 0.000000	 0.000000	 0.000000	 3.168165	-1.476187	-0.440319	 2.830021	 0.436192	-0.787923	 114.192200	-4.258899	-88.495030	-16.881900	 51.347330	-43.779390	-42.094900	-0.595788	-50.170360	 5.134774	-10.336420	 58.828880	-0.359869	 10.585300	 0.744583	 11.977810	 9.320131	-2.096669	-8.359138	 3.150407	 0.104219
